<?xml version="1.0" encoding="UTF-8"?>
<svg width="128" height="128" version="1.1" viewBox="0 0 33.867 33.867" xmlns="http://www.w3.org/2000/svg">
 <g transform="translate(0 -288.53)" stroke="#000">
  <g fill="#5b8599" stroke-width=".26458px">
   <path d="m26.175 297.77s0.51972-1.441 1.2757-1.1339 0.82682 1.7245 0.82682 1.7245 1.5355 0.96856 0.94494 1.819c-0.59059 0.85044-3.0474-2.4096-3.0474-2.4096z"/>
   <path d="m1.819 302.14s-0.70871-0.70871 0.094494-1.3702c0.8032-0.66145 1.5119-1.5355 1.5119-1.5355s-0.30711-0.4961 0.18899-1.0631c0.49609-0.56697 1.3702-0.44885 1.3702-0.44885s0.4016-0.54334 3.0002-0.94494c2.5986-0.4016 2.9766 0.23624 2.9766 0.23624s3.2364-1.9844 8.1501-1.9608c4.9137 0.0236 9.5203 2.8821 11.646 7.843 2.1261 4.9609 1.6536 12.142-1.5119 15.308-3.1655 3.1656-3.9687-2.3624-3.9687-2.3624s1.3229 3.449 2.9293 1.6536c1.6064-1.7954 2.5513-7.7958 1.1812-10.442-1.3702-2.6458-3.6853-4.583-7.0398-5.3862-3.3545-0.8032-6.5201-0.0945-8.41 0.18899-1.8899 0.28348-3.5435-0.14174-3.5435-0.14174s-0.70871 0.28348-1.8899 0.56696c-1.1812 0.28348-1.7009-0.0945-1.7009-0.0945s-2.0316 0.66145-3.6853 0.51971c-1.6536-0.14174-1.2993-0.56696-1.2993-0.56696z"/>
   <path d="m13.773 301.31s1.7245-2.1497 2.8348-1.2284c1.1103 0.92132-2.008 2.6458-2.008 2.6458s-0.4016 0.42522-0.02362 0.87407c0.37798 0.44884-0.07087 0.56696-0.47247 0.44884-0.4016-0.11811-0.44885-0.89769-0.7087-0.77957-0.25986 0.11811-0.94494 1.3465-1.6536 0.87407-0.7087-0.47247 0.82682-0.96857 0.82682-0.96857s-1.2048 0.56697-1.8426 0c-0.63784-0.56696-0.28348-0.94494 0.16536-0.73233 0.44885 0.21262 1.2048 0.25986 1.2048 0.25986s-1.3938-0.47247-0.99219-0.77957c0.4016-0.30711 1.7954 0.21261 1.7954 0.21261z"/>
   <path d="m22.655 302.75s1.8426-3.8034 3.0002-3.1183c1.1576 0.68508 1.8899 1.8899 1.7954 2.2915-0.09449 0.4016-0.99219 1.5355-1.5119 1.252-0.51972-0.28348-0.75595-1.0394-0.75595-1.0394l-0.59059 0.8032s0.96856 0.59059 1.3938 1.2284c0.42522 0.63784 0.82682 1.6773 0.14174 1.2284-0.68508-0.44884-1.0158-1.4883-1.3465-1.5592-0.33073-0.0709-0.49609-0.0709-0.49609-0.0709s0.56696 0.77958 0.56696 1.3702c0 0.59059 0.54334 1.6536 0.14174 1.63-0.4016-0.0236-1.2048-0.37798-1.0394-0.96857 0.16536-0.59058-0.25986-2.1734-0.59059-1.4883-0.33073 0.68508-0.92132 1.5119-1.4647 1.0631-0.54334-0.44885 0.61421-1.1339 0.61421-1.1339s-1.5828 0.4016-2.0789-0.0473c-0.49609-0.44884 0.21261-0.54334 0.21261-0.54334s-0.92132-0.47247 0.49609-0.44884c1.4174 0.0236 1.5119-0.44885 1.5119-0.44885z"/>
  </g>
  <path d="m1.8426 302.12s0.37798 0.16537 2.4096-0.28348c2.0316-0.44884 1.9608-0.85044 1.9608-0.85044" fill="none" stroke-width=".26458px"/>
  <circle cx="5.3153" cy="299.92" r=".8032" fill="#d7b600" stroke-linecap="round" stroke-linejoin="bevel" stroke-miterlimit="40" stroke-width=".26458"/>
 </g>
</svg>
